<svg width="30" height="31" viewBox="0 0 30 31" fill="none" xmlns="http://www.w3.org/2000/svg">
<path fill-rule="evenodd" clip-rule="evenodd" d="M5.5 29.5H2.5C1.672 29.5 1 28.828 1 28V19C1 18.172 1.672 17.5 2.5 17.5H5.5C6.328 17.5 7 18.172 7 19V28C7 28.828 6.328 29.5 5.5 29.5Z" stroke="#EC7000" stroke-width="2" stroke-linecap="round" stroke-linejoin="round"/>
<path d="M16 23.5001H19.4995C20.149 23.5001 20.7805 23.2901 21.2995 22.9001L24.9235 20.1821C25.828 19.5041 27.094 19.5941 27.8935 20.3936V20.3936C28.7815 21.2816 28.7815 22.7201 27.8935 23.6066L24.784 26.7161C23.947 27.5531 22.879 28.1246 21.718 28.3571L17.323 29.2361C16.4515 29.4101 15.553 29.3891 14.6905 29.1731L10.7155 28.1801C10.24 28.0601 9.7525 28.0001 9.262 28.0001H7" stroke="#EC7000" stroke-width="2" stroke-linecap="round" stroke-linejoin="round"/>
<path d="M16 23.5H18.2275C19.483 23.5 20.5 22.483 20.5 21.2275V20.773C20.5 19.7305 19.7905 18.8215 18.7795 18.5695L15.3415 17.71C14.782 17.5705 14.209 17.5 13.633 17.5V17.5C12.2425 17.5 10.882 17.911 9.7255 18.6835L7 20.5" stroke="#EC7000" stroke-width="2" stroke-linecap="round" stroke-linejoin="round"/>
<path opacity="0.6" fill-rule="evenodd" clip-rule="evenodd" d="M12.5005 13H25.501C26.881 13 28 11.881 28 10.4995V3.5005C28 2.119 26.881 1 25.4995 1H12.499C11.119 1 10 2.119 10 3.5005V10.501C10 11.881 11.119 13 12.5005 13Z" stroke="#EC7000" stroke-width="2" stroke-linecap="round" stroke-linejoin="round"/>
<path opacity="0.6" d="M20.5915 5.40861C21.4705 6.28761 21.4705 7.71411 20.5915 8.59161C19.7125 9.46911 18.286 9.47061 17.4085 8.59161C16.5295 7.71261 16.5295 6.28611 17.4085 5.40861C18.2875 4.53111 19.7125 4.53111 20.5915 5.40861" stroke="#EC7000" stroke-width="2" stroke-linecap="round" stroke-linejoin="round"/>
</svg>
